P3
5 5
255
102 170 170 0 0 0 0 0 0 0 0 0 0 0 0 
102 170 170 0 0 0 0 0 0 0 0 0 0 0 0 
102 170 170 0 0 0 0 0 0 0 0 0 0 0 0 
102 170 170 0 0 0 0 0 0 0 0 0 0 0 0 
102 170 170 0 0 0 0 0 0 0 0 0 0 0 0 
